<svg width="512" height="512" viewBox="0 0 512 512" fill="none" xmlns="http://www.w3.org/2000/svg">
<path d="M512 256C512 397.385 397.385 512 256 512C114.615 512 0 397.385 0 256C0 114.615 114.615 0 256 0C397.385 0 512 114.615 512 256Z" fill="#0D022B"/>
<mask id="path-2-outside-1_35_15" maskUnits="userSpaceOnUse" x="83" y="75" width="347" height="363" fill="black">
<rect fill="white" x="83" y="75" width="347" height="363"/>
<path d="M177.377 77.023C172.241 77.2144 168.094 78.4581 165.383 79.5744L111.284 97.6891C105.829 98.8053 100.534 101.102 96.2281 104.833C89.083 111.052 85 120.109 85 129.581V344.151C85 358.662 94.7927 371.546 108.732 375.533L203.406 402.577C206.181 397.761 209.371 392.722 212.592 388.034L113.07 359.714C106.085 357.737 101.332 351.39 101.332 344.151V129.581C101.332 124.861 103.373 120.173 106.946 117.079C109.211 115.102 111.954 114.018 114.857 113.508C114.952 113.508 115.016 113.508 115.112 113.508C116.834 113.252 118.429 113.029 119.96 113.252L299.61 139.021C307.617 140.169 313.645 147.026 313.645 155.095V231.636L323.087 222.196C325.224 220.059 327.585 218.273 329.977 216.583V155.095C329.977 138.925 317.888 125.212 301.907 122.948L151.858 101.261L170.997 94.8826C174.825 93.3517 177.728 92.9371 180.694 93.3517L348.606 114.273C356.612 115.421 362.641 122.278 362.641 130.347V206.887C368.191 207.079 373.709 208.036 378.973 209.949V130.347C378.973 114.177 367.043 100.496 350.902 98.1993L182.991 77.2781C181.109 77.023 179.099 76.9592 177.377 77.023ZM403.215 215.562C396.867 215.562 390.647 217.922 385.863 222.706L383.056 225.768C382.992 225.736 382.864 225.799 382.8 225.768C376.07 221.366 368.382 218.879 360.599 218.879C350.137 218.879 339.706 222.929 331.764 230.87L288.637 274.243C286.213 276.221 285.097 279.378 285.798 282.44C286.5 285.469 288.892 287.861 291.923 288.563C294.985 289.265 298.143 288.148 300.121 285.725L343.247 242.351C350.551 235.048 360.631 235.208 369.531 239.035L312.625 296.185C312.433 296.345 312.274 296.504 312.114 296.695L311.859 296.951C311.668 297.11 311.508 297.27 311.349 297.461L257.25 351.55C248.414 360.384 235.368 376.617 224.841 391.861C219.578 399.484 215.017 406.691 211.827 412.783C210.232 415.812 209.052 418.683 208.254 421.457C207.839 422.86 207.457 424.168 207.489 426.05C207.521 427.931 207.903 430.802 210.296 433.193C212.752 435.649 215.591 436 217.441 436C219.291 436 220.918 435.649 222.289 435.235C225.033 434.405 227.68 433.257 230.71 431.663C236.771 428.473 244.012 423.913 251.636 418.651C266.915 408.158 283.087 395.37 291.955 386.504L420.823 257.66C430.392 248.092 430.392 232.274 420.823 222.706C416.038 217.922 409.563 215.562 403.215 215.562ZM403.215 231.891C405.352 231.891 407.426 232.784 409.084 234.442C412.434 237.791 412.434 242.83 409.084 246.178L353.965 301.288L342.226 289.552L389.435 242.351C389.818 241.969 390.169 241.522 390.456 241.076L397.346 234.442C399.005 232.784 401.078 231.891 403.215 231.891ZM330.488 301.288L342.226 313.024L280.471 374.767C273.262 381.975 257.058 395.082 242.449 405.128C238.398 407.903 235.304 409.561 231.731 411.762C233.932 408.222 235.591 405.065 238.366 401.046C248.446 386.472 261.492 370.27 268.733 363.031L322.577 309.197C323.151 308.751 323.661 308.24 324.108 307.666L330.488 301.288ZM378.973 316.851L362.641 333.18V370.685C362.641 377.127 358.845 382.9 352.689 385.738L329.977 396.964C330.009 396.39 329.977 396.007 329.977 395.433V365.837L313.645 382.166V395.433C313.645 398.017 312.976 400.345 311.859 402.577C311.827 402.641 311.891 402.768 311.859 402.832C311.317 403.885 310.583 404.969 309.818 405.894C308.861 406.978 307.489 407.839 306.245 408.7C305.926 408.924 305.767 409.211 305.479 409.466C301.684 411.634 297.027 412.24 292.72 410.997L285.065 408.956C279.865 413.165 274.347 417.247 268.988 421.202L288.382 426.815C291.381 427.676 294.315 428.091 297.314 428.091C303.406 428.091 309.403 426.305 314.666 422.988L359.834 400.281C371.477 394.987 378.973 383.41 378.973 370.685V316.851Z"/>
</mask>
<path d="M177.377 77.023C172.241 77.2144 168.094 78.4581 165.383 79.5744L111.284 97.6891C105.829 98.8053 100.534 101.102 96.2281 104.833C89.083 111.052 85 120.109 85 129.581V344.151C85 358.662 94.7927 371.546 108.732 375.533L203.406 402.577C206.181 397.761 209.371 392.722 212.592 388.034L113.07 359.714C106.085 357.737 101.332 351.39 101.332 344.151V129.581C101.332 124.861 103.373 120.173 106.946 117.079C109.211 115.102 111.954 114.018 114.857 113.508C114.952 113.508 115.016 113.508 115.112 113.508C116.834 113.252 118.429 113.029 119.96 113.252L299.61 139.021C307.617 140.169 313.645 147.026 313.645 155.095V231.636L323.087 222.196C325.224 220.059 327.585 218.273 329.977 216.583V155.095C329.977 138.925 317.888 125.212 301.907 122.948L151.858 101.261L170.997 94.8826C174.825 93.3517 177.728 92.9371 180.694 93.3517L348.606 114.273C356.612 115.421 362.641 122.278 362.641 130.347V206.887C368.191 207.079 373.709 208.036 378.973 209.949V130.347C378.973 114.177 367.043 100.496 350.902 98.1993L182.991 77.2781C181.109 77.023 179.099 76.9592 177.377 77.023ZM403.215 215.562C396.867 215.562 390.647 217.922 385.863 222.706L383.056 225.768C382.992 225.736 382.864 225.799 382.8 225.768C376.07 221.366 368.382 218.879 360.599 218.879C350.137 218.879 339.706 222.929 331.764 230.87L288.637 274.243C286.213 276.221 285.097 279.378 285.798 282.44C286.5 285.469 288.892 287.861 291.923 288.563C294.985 289.265 298.143 288.148 300.121 285.725L343.247 242.351C350.551 235.048 360.631 235.208 369.531 239.035L312.625 296.185C312.433 296.345 312.274 296.504 312.114 296.695L311.859 296.951C311.668 297.11 311.508 297.27 311.349 297.461L257.25 351.55C248.414 360.384 235.368 376.617 224.841 391.861C219.578 399.484 215.017 406.691 211.827 412.783C210.232 415.812 209.052 418.683 208.254 421.457C207.839 422.86 207.457 424.168 207.489 426.05C207.521 427.931 207.903 430.802 210.296 433.193C212.752 435.649 215.591 436 217.441 436C219.291 436 220.918 435.649 222.289 435.235C225.033 434.405 227.68 433.257 230.71 431.663C236.771 428.473 244.012 423.913 251.636 418.651C266.915 408.158 283.087 395.37 291.955 386.504L420.823 257.66C430.392 248.092 430.392 232.274 420.823 222.706C416.038 217.922 409.563 215.562 403.215 215.562ZM403.215 231.891C405.352 231.891 407.426 232.784 409.084 234.442C412.434 237.791 412.434 242.83 409.084 246.178L353.965 301.288L342.226 289.552L389.435 242.351C389.818 241.969 390.169 241.522 390.456 241.076L397.346 234.442C399.005 232.784 401.078 231.891 403.215 231.891ZM330.488 301.288L342.226 313.024L280.471 374.767C273.262 381.975 257.058 395.082 242.449 405.128C238.398 407.903 235.304 409.561 231.731 411.762C233.932 408.222 235.591 405.065 238.366 401.046C248.446 386.472 261.492 370.27 268.733 363.031L322.577 309.197C323.151 308.751 323.661 308.24 324.108 307.666L330.488 301.288ZM378.973 316.851L362.641 333.18V370.685C362.641 377.127 358.845 382.9 352.689 385.738L329.977 396.964C330.009 396.39 329.977 396.007 329.977 395.433V365.837L313.645 382.166V395.433C313.645 398.017 312.976 400.345 311.859 402.577C311.827 402.641 311.891 402.768 311.859 402.832C311.317 403.885 310.583 404.969 309.818 405.894C308.861 406.978 307.489 407.839 306.245 408.7C305.926 408.924 305.767 409.211 305.479 409.466C301.684 411.634 297.027 412.24 292.72 410.997L285.065 408.956C279.865 413.165 274.347 417.247 268.988 421.202L288.382 426.815C291.381 427.676 294.315 428.091 297.314 428.091C303.406 428.091 309.403 426.305 314.666 422.988L359.834 400.281C371.477 394.987 378.973 383.41 378.973 370.685V316.851Z" fill="white"/>
<path d="M177.377 77.023C172.241 77.2144 168.094 78.4581 165.383 79.5744L111.284 97.6891C105.829 98.8053 100.534 101.102 96.2281 104.833C89.083 111.052 85 120.109 85 129.581V344.151C85 358.662 94.7927 371.546 108.732 375.533L203.406 402.577C206.181 397.761 209.371 392.722 212.592 388.034L113.07 359.714C106.085 357.737 101.332 351.39 101.332 344.151V129.581C101.332 124.861 103.373 120.173 106.946 117.079C109.211 115.102 111.954 114.018 114.857 113.508C114.952 113.508 115.016 113.508 115.112 113.508C116.834 113.252 118.429 113.029 119.96 113.252L299.61 139.021C307.617 140.169 313.645 147.026 313.645 155.095V231.636L323.087 222.196C325.224 220.059 327.585 218.273 329.977 216.583V155.095C329.977 138.925 317.888 125.212 301.907 122.948L151.858 101.261L170.997 94.8826C174.825 93.3517 177.728 92.9371 180.694 93.3517L348.606 114.273C356.612 115.421 362.641 122.278 362.641 130.347V206.887C368.191 207.079 373.709 208.036 378.973 209.949V130.347C378.973 114.177 367.043 100.496 350.902 98.1993L182.991 77.2781C181.109 77.023 179.099 76.9592 177.377 77.023ZM403.215 215.562C396.867 215.562 390.647 217.922 385.863 222.706L383.056 225.768C382.992 225.736 382.864 225.799 382.8 225.768C376.07 221.366 368.382 218.879 360.599 218.879C350.137 218.879 339.706 222.929 331.764 230.87L288.637 274.243C286.213 276.221 285.097 279.378 285.798 282.44C286.5 285.469 288.892 287.861 291.923 288.563C294.985 289.265 298.143 288.148 300.121 285.725L343.247 242.351C350.551 235.048 360.631 235.208 369.531 239.035L312.625 296.185C312.433 296.345 312.274 296.504 312.114 296.695L311.859 296.951C311.668 297.11 311.508 297.27 311.349 297.461L257.25 351.55C248.414 360.384 235.368 376.617 224.841 391.861C219.578 399.484 215.017 406.691 211.827 412.783C210.232 415.812 209.052 418.683 208.254 421.457C207.839 422.86 207.457 424.168 207.489 426.05C207.521 427.931 207.903 430.802 210.296 433.193C212.752 435.649 215.591 436 217.441 436C219.291 436 220.918 435.649 222.289 435.235C225.033 434.405 227.68 433.257 230.71 431.663C236.771 428.473 244.012 423.913 251.636 418.651C266.915 408.158 283.087 395.37 291.955 386.504L420.823 257.66C430.392 248.092 430.392 232.274 420.823 222.706C416.038 217.922 409.563 215.562 403.215 215.562ZM403.215 231.891C405.352 231.891 407.426 232.784 409.084 234.442C412.434 237.791 412.434 242.83 409.084 246.178L353.965 301.288L342.226 289.552L389.435 242.351C389.818 241.969 390.169 241.522 390.456 241.076L397.346 234.442C399.005 232.784 401.078 231.891 403.215 231.891ZM330.488 301.288L342.226 313.024L280.471 374.767C273.262 381.975 257.058 395.082 242.449 405.128C238.398 407.903 235.304 409.561 231.731 411.762C233.932 408.222 235.591 405.065 238.366 401.046C248.446 386.472 261.492 370.27 268.733 363.031L322.577 309.197C323.151 308.751 323.661 308.24 324.108 307.666L330.488 301.288ZM378.973 316.851L362.641 333.18V370.685C362.641 377.127 358.845 382.9 352.689 385.738L329.977 396.964C330.009 396.39 329.977 396.007 329.977 395.433V365.837L313.645 382.166V395.433C313.645 398.017 312.976 400.345 311.859 402.577C311.827 402.641 311.891 402.768 311.859 402.832C311.317 403.885 310.583 404.969 309.818 405.894C308.861 406.978 307.489 407.839 306.245 408.7C305.926 408.924 305.767 409.211 305.479 409.466C301.684 411.634 297.027 412.24 292.72 410.997L285.065 408.956C279.865 413.165 274.347 417.247 268.988 421.202L288.382 426.815C291.381 427.676 294.315 428.091 297.314 428.091C303.406 428.091 309.403 426.305 314.666 422.988L359.834 400.281C371.477 394.987 378.973 383.41 378.973 370.685V316.851Z" stroke="white" stroke-width="4" mask="url(#path-2-outside-1_35_15)"/>
</svg>
