<svg width="130" height="130" viewBox="0 0 130 130" fill="none" xmlns="http://www.w3.org/2000/svg">
<path d="M0 0H130V129.037H0V0Z" fill="#1868B7"/>
<line x1="97.8619" y1="7.03265" x2="119.529" y2="7.03265" stroke="white" stroke-width="4"/>
<line x1="122.9" y1="10.4073" x2="122.9" y2="31.9135" stroke="white" stroke-width="4"/>
<line x1="32.1381" y1="122.004" x2="10.4714" y2="122.004" stroke="white" stroke-width="4"/>
<line x1="7.10022" y1="118.63" x2="7.10022" y2="97.1238" stroke="white" stroke-width="4"/>
<path d="M47.5947 48.1L43.7867 60H39.4857L37.5647 53.642L35.5417 60H31.2407L27.4327 48.1H31.5637L33.6377 54.866L35.8307 48.1H39.5197L41.5937 54.951L43.7867 48.1H47.5947Z" fill="white"/>
<path d="M56.163 57.926H51.641L50.842 60H46.762L51.964 48.1H55.908L61.11 60H56.962L56.163 57.926ZM55.058 55.036L53.902 52.044L52.746 55.036H55.058Z" fill="white"/>
<path d="M66.8502 57.008H65.7622V60H61.7502V48.1H67.4792C68.5786 48.1 69.5362 48.2813 70.3522 48.644C71.1682 49.0066 71.7972 49.528 72.2392 50.208C72.6812 50.888 72.9022 51.6813 72.9022 52.588C72.9022 53.438 72.7096 54.1803 72.3242 54.815C71.9389 55.4496 71.3836 55.954 70.6582 56.328L73.1572 60H68.8732L66.8502 57.008ZM68.8562 52.588C68.8562 52.146 68.7202 51.806 68.4482 51.568C68.1762 51.3186 67.7682 51.194 67.2242 51.194H65.7622V53.982H67.2242C67.7682 53.982 68.1762 53.863 68.4482 53.625C68.7202 53.3756 68.8562 53.03 68.8562 52.588Z" fill="white"/>
<path d="M85.0422 60L85.0082 54.577L82.4242 58.929H80.6562L78.0722 54.764V60H74.4172V48.1H77.7152L81.5912 54.441L85.3652 48.1H88.6632L88.6972 60H85.0422Z" fill="white"/>
<path d="M97.709 55.682V60H93.697V55.631L89.209 48.1H93.442L95.873 52.214L98.321 48.1H102.197L97.709 55.682Z" fill="white"/>
<path d="M15.2908 69.1H21.1558C22.4818 69.1 23.6491 69.3436 24.6578 69.831C25.6778 70.307 26.4654 70.9926 27.0208 71.888C27.5874 72.7833 27.8708 73.8373 27.8708 75.05C27.8708 76.2626 27.5874 77.3166 27.0208 78.212C26.4654 79.1073 25.6778 79.7986 24.6578 80.286C23.6491 80.762 22.4818 81 21.1558 81H15.2908V69.1ZM20.9858 77.872C21.8471 77.872 22.5328 77.6283 23.0428 77.141C23.5641 76.6423 23.8248 75.9453 23.8248 75.05C23.8248 74.1546 23.5641 73.4633 23.0428 72.976C22.5328 72.4773 21.8471 72.228 20.9858 72.228H19.3028V77.872H20.9858Z" fill="white"/>
<path d="M35.5747 81.272C34.294 81.272 33.1437 81.0056 32.1237 80.473C31.1037 79.9403 30.3047 79.2036 29.7267 78.263C29.1487 77.311 28.8597 76.24 28.8597 75.05C28.8597 73.86 29.1487 72.7946 29.7267 71.854C30.3047 70.902 31.1037 70.1596 32.1237 69.627C33.1437 69.0943 34.294 68.828 35.5747 68.828C36.8554 68.828 38.0057 69.0943 39.0257 69.627C40.0457 70.1596 40.8447 70.902 41.4227 71.854C42.0007 72.7946 42.2897 73.86 42.2897 75.05C42.2897 76.24 42.0007 77.311 41.4227 78.263C40.8447 79.2036 40.0457 79.9403 39.0257 80.473C38.0057 81.0056 36.8554 81.272 35.5747 81.272ZM35.5747 78.025C36.0734 78.025 36.521 77.906 36.9177 77.668C37.3257 77.4186 37.6487 77.073 37.8867 76.631C38.1247 76.1776 38.2437 75.6506 38.2437 75.05C38.2437 74.4493 38.1247 73.928 37.8867 73.486C37.6487 73.0326 37.3257 72.687 36.9177 72.449C36.521 72.1996 36.0734 72.075 35.5747 72.075C35.076 72.075 34.6227 72.1996 34.2147 72.449C33.818 72.687 33.5007 73.0326 33.2627 73.486C33.0247 73.928 32.9057 74.4493 32.9057 75.05C32.9057 75.6506 33.0247 76.1776 33.2627 76.631C33.5007 77.073 33.818 77.4186 34.2147 77.668C34.6227 77.906 35.076 78.025 35.5747 78.025Z" fill="white"/>
<path d="M55.4758 69.1V81H52.1778L47.6558 75.594V81H43.7458V69.1H47.0439L51.5658 74.506V69.1H55.4758Z" fill="white"/>
<path d="M65.5179 78.926H60.9959L60.1969 81H56.1169L61.3189 69.1H65.2629L70.4649 81H66.3169L65.5179 78.926ZM64.4129 76.036L63.2569 73.044L62.1009 76.036H64.4129Z" fill="white"/>
<path d="M73.0916 72.211H69.6066V69.1H80.5886V72.211H77.1036V81H73.0916V72.211Z" fill="white"/>
<path d="M81.6306 69.1H85.6426V81H81.6306V69.1Z" fill="white"/>
<path d="M93.813 81.272C92.5323 81.272 91.382 81.0056 90.362 80.473C89.342 79.9403 88.543 79.2036 87.965 78.263C87.387 77.311 87.098 76.24 87.098 75.05C87.098 73.86 87.387 72.7946 87.965 71.854C88.543 70.902 89.342 70.1596 90.362 69.627C91.382 69.0943 92.5323 68.828 93.813 68.828C95.0936 68.828 96.244 69.0943 97.264 69.627C98.284 70.1596 99.083 70.902 99.661 71.854C100.239 72.7946 100.528 73.86 100.528 75.05C100.528 76.24 100.239 77.311 99.661 78.263C99.083 79.2036 98.284 79.9403 97.264 80.473C96.244 81.0056 95.0936 81.272 93.813 81.272ZM93.813 78.025C94.3116 78.025 94.7593 77.906 95.156 77.668C95.564 77.4186 95.887 77.073 96.125 76.631C96.363 76.1776 96.482 75.6506 96.482 75.05C96.482 74.4493 96.363 73.928 96.125 73.486C95.887 73.0326 95.564 72.687 95.156 72.449C94.7593 72.1996 94.3116 72.075 93.813 72.075C93.3143 72.075 92.861 72.1996 92.453 72.449C92.0563 72.687 91.739 73.0326 91.501 73.486C91.263 73.928 91.144 74.4493 91.144 75.05C91.144 75.6506 91.263 76.1776 91.501 76.631C91.739 77.073 92.0563 77.4186 92.453 77.668C92.861 77.906 93.3143 78.025 93.813 78.025Z" fill="white"/>
<path d="M113.714 69.1V81H110.416L105.894 75.594V81H101.984V69.1H105.282L109.804 74.506V69.1H113.714Z" fill="white"/>
</svg>
